<?xml version="1.0" encoding="utf-8"?>
<!-- Generator: Adobe Illustrator 30.2.1, SVG Export Plug-In . SVG Version: 9.03 Build 0)  -->
<svg version="1.1" id="Layer_1" xmlns="http://www.w3.org/2000/svg" xmlns:xlink="http://www.w3.org/1999/xlink" x="0px" y="0px"
	 viewBox="0 0 228 68" style="enable-background:new 0 0 228 68;" xml:space="preserve" width="260px" height="78px" left="16px" top="16px">
<style type="text/css">
	.st0{fill:#002D74;}
</style>
<g>
	<g>
		<rect x="5.97" y="43.81" class="st0" width="215.44" height="1.35"/>
	</g>
	<g>
		<path class="st0" d="M5.88,62.02l5.62-7.35l-5.31,0.03v-1.36h7.28v1.12l-5.63,7.35l5.69-0.03v1.36H5.88V62.02z"/>
		<path class="st0" d="M15.21,53.33h1.64v9.81h-1.64V53.33z"/>
		<path class="st0" d="M19.05,58.22c0-3.63,1.53-5.07,4.54-5.07c1.83,0,3.03,0.56,3.7,1.99l-1.3,0.77c-0.5-1.08-1.22-1.41-2.4-1.41
			c-1.85,0-2.9,0.8-2.9,3.73c0,2.91,1.05,3.78,2.9,3.78c1.18,0,2.02-0.42,2.58-1.55l1.27,0.74c-0.77,1.48-2.03,2.13-3.88,2.13
			C20.55,63.32,19.05,61.82,19.05,58.22z"/>
		<path class="st0" d="M29.22,53.33h1.64l-0.01,5.13l4.17-5.13h1.93l-3.66,4.37l3.8,5.44h-1.96l-2.94-4.24l-1.33,1.58v2.66h-1.64
			V53.33z"/>
		<path class="st0" d="M45.76,61.76v1.37h-7.1v-9.81h1.64v8.43H45.76z"/>
		<path class="st0" d="M47.48,53.33h1.64v9.81h-1.64V53.33z"/>
		<path class="st0" d="M53.24,55.83l0.04,7.31h-1.56v-9.81h1.46l5.21,7.44l-0.04-7.44h1.57v9.81h-1.56L53.24,55.83z"/>
		<path class="st0" d="M71.02,55.73c-0.5-0.9-1.13-1.32-2.31-1.32c-1.43,0-1.99,0.66-1.99,1.43c0,0.67,0.39,1.23,1.74,1.53l0.88,0.2
			c2.19,0.49,3.11,1.36,3.11,2.82c0,1.83-1.37,2.94-3.81,2.94c-1.61,0-3-0.5-3.82-1.89l1.19-0.83c0.67,1.08,1.4,1.48,2.68,1.48
			c1.5,0,2.19-0.56,2.19-1.54c0-0.8-0.43-1.18-1.83-1.5l-0.9-0.21c-2.1-0.49-2.93-1.51-2.93-2.86c0-1.71,1.33-2.83,3.49-2.83
			c1.74,0,2.84,0.55,3.53,1.78L71.02,55.73z"/>
		<path class="st0" d="M74.07,58.22c0-3.63,1.53-5.07,4.54-5.07c1.83,0,3.03,0.56,3.7,1.99l-1.3,0.77c-0.5-1.08-1.22-1.41-2.4-1.41
			c-1.85,0-2.9,0.8-2.9,3.73c0,2.91,1.05,3.78,2.9,3.78c1.18,0,2.02-0.42,2.58-1.55l1.27,0.74c-0.77,1.48-2.03,2.13-3.88,2.13
			C75.57,63.32,74.07,61.82,74.07,58.22z"/>
		<path class="st0" d="M90.93,58.92h-5.06v4.22h-1.64v-9.81h1.64v4.17h5.06v-4.17h1.64v9.81h-1.64V58.92z"/>
		<path class="st0" d="M99.31,53.15c3.18,0,4.54,1.54,4.54,5.07c0,3.54-1.5,5.1-4.54,5.1c-3.11,0-4.52-1.55-4.52-5.1
			S96.27,53.15,99.31,53.15z M99.31,61.99c1.89,0,2.89-0.88,2.89-3.78c0-2.82-0.99-3.73-2.89-3.73s-2.89,0.85-2.89,3.75
			C96.42,61.08,97.42,61.99,99.31,61.99z"/>
		<path class="st0" d="M110.16,53.15c3.18,0,4.54,1.54,4.54,5.07c0,3.54-1.5,5.1-4.54,5.1c-3.11,0-4.52-1.55-4.52-5.1
			S107.12,53.15,110.16,53.15z M110.16,61.99c1.89,0,2.89-0.88,2.89-3.78c0-2.82-0.99-3.73-2.89-3.73s-2.89,0.85-2.89,3.75
			C107.27,61.08,108.27,61.99,110.16,61.99z"/>
		<path class="st0" d="M124.01,61.76v1.37h-7.1v-9.81h1.64v8.43H124.01z"/>
		<path class="st0" d="M132.9,53.15c3.18,0,4.54,1.54,4.54,5.07c0,3.54-1.5,5.1-4.54,5.1c-3.11,0-4.52-1.55-4.52-5.1
			S129.86,53.15,132.9,53.15z M132.9,61.99c1.89,0,2.89-0.88,2.89-3.78c0-2.82-1-3.73-2.89-3.73s-2.89,0.85-2.89,3.75
			C130.02,61.08,131.01,61.99,132.9,61.99z"/>
		<path class="st0" d="M139.66,53.33h7.02v1.36h-5.38v2.91h4.78V59h-4.78v4.13h-1.64V53.33z"/>
		<path class="st0" d="M151.33,53.33h4.38c2.07,0,2.9,1.04,2.9,2.56c0,1.04-0.53,1.81-1.39,2.14c1.13,0.25,1.64,1.27,1.64,2.3
			c0,1.83-1.09,2.8-3.29,2.8h-4.24V53.33z M152.92,54.62v2.89h2.58c1.08,0,1.53-0.66,1.53-1.46c0-0.98-0.56-1.43-1.47-1.43H152.92z
			 M152.92,58.81v3.05h2.59c1.18,0,1.75-0.53,1.75-1.58c0-0.92-0.5-1.47-1.69-1.47H152.92z"/>
		<path class="st0" d="M167.35,53.33h1.64v5.9c0,2.76-1.54,4.09-4.1,4.09c-2.62,0-4.12-1.34-4.12-4.09v-5.9h1.64v5.98
			c0,1.88,0.97,2.66,2.48,2.66s2.46-0.78,2.46-2.66V53.33z"/>
		<path class="st0" d="M176.68,55.73c-0.5-0.9-1.13-1.32-2.31-1.32c-1.43,0-1.99,0.66-1.99,1.43c0,0.67,0.39,1.23,1.74,1.53
			l0.88,0.2c2.19,0.49,3.11,1.36,3.11,2.82c0,1.83-1.37,2.94-3.81,2.94c-1.61,0-3-0.5-3.82-1.89l1.19-0.83
			c0.67,1.08,1.4,1.48,2.68,1.48c1.5,0,2.18-0.56,2.18-1.54c0-0.8-0.43-1.18-1.83-1.5l-0.9-0.21c-2.1-0.49-2.93-1.51-2.93-2.86
			c0-1.71,1.33-2.83,3.49-2.83c1.74,0,2.84,0.55,3.53,1.78L176.68,55.73z"/>
		<path class="st0" d="M180.12,53.33h1.64v9.81h-1.64V53.33z"/>
		<path class="st0" d="M185.88,55.83l0.04,7.31h-1.55v-9.81h1.46l5.21,7.44l-0.04-7.44h1.57v9.81h-1.55L185.88,55.83z"/>
		<path class="st0" d="M195.19,53.33h7.24v1.34h-5.64v2.84h4.93v1.36h-4.93v2.91h5.79v1.34h-7.38V53.33z"/>
		<path class="st0" d="M210.04,55.73c-0.5-0.9-1.13-1.32-2.31-1.32c-1.43,0-1.99,0.66-1.99,1.43c0,0.67,0.39,1.23,1.74,1.53
			l0.88,0.2c2.19,0.49,3.11,1.36,3.11,2.82c0,1.83-1.37,2.94-3.81,2.94c-1.61,0-3-0.5-3.82-1.89l1.19-0.83
			c0.67,1.08,1.4,1.48,2.68,1.48c1.5,0,2.19-0.56,2.19-1.54c0-0.8-0.43-1.18-1.84-1.5l-0.9-0.21c-2.1-0.49-2.93-1.51-2.93-2.86
			c0-1.71,1.33-2.83,3.49-2.83c1.74,0,2.84,0.55,3.53,1.78L210.04,55.73z"/>
		<path class="st0" d="M219.04,55.73c-0.5-0.9-1.13-1.32-2.31-1.32c-1.43,0-1.99,0.66-1.99,1.43c0,0.67,0.39,1.23,1.74,1.53
			l0.88,0.2c2.19,0.49,3.11,1.36,3.11,2.82c0,1.83-1.37,2.94-3.81,2.94c-1.61,0-3-0.5-3.82-1.89l1.19-0.83
			c0.67,1.08,1.4,1.48,2.68,1.48c1.5,0,2.19-0.56,2.19-1.54c0-0.8-0.43-1.18-1.84-1.5l-0.9-0.21c-2.1-0.49-2.93-1.51-2.93-2.86
			c0-1.71,1.33-2.83,3.49-2.83c1.74,0,2.84,0.55,3.53,1.78L219.04,55.73z"/>
	</g>
	<g>
		<path class="st0" d="M57.91,25.58l6.83-3.96c0,0-0.88,0.83-0.75,3.17c0,0-0.14,4.69,0,5.26c0,0,0.07,2.85,4.04,2.38
			c0,0,2.47-0.44,2.47-3.09c0,0,0-8.15-0.04-8.56c0,0,0.14-1.83-1.33-1.46c0,0,7.1-4.16,7.51-4.45c0,0-0.67,0.44-0.76,2.28v14.95
			c0,0-0.05,2.27,1.36,2.53c0,0-6.32,0.06-6.78,0.02l-0.01-2.17c0,0-1.87,2.65-6.76,2.65c0,0-4.19,0.12-4.53-3.07
			c0,0-0.21-3.55-0.21-5.3C58.97,26.77,59.07,25.17,57.91,25.58"/>
		<path class="st0" d="M96.33,10.74l6.53-3.77c0,0,0.12,11.65,0.12,12.15c0,0,1.3-3.09,6.31-3.88c0,0,5.71-0.92,6.04,3.72
			c0.14,1.89,0.11,11.03,0.11,13.52c0,0,0.02,1.84,1.31,2.21c0,0-7.8,0.01-8.14,0.01c0,0,1.17-0.5,1.26-2.25
			c0,0,0.17-10.49-0.04-11.32c0,0-0.04-2.92-3.01-2.92c0,0-3.24,0.27-3.66,3.8c-0.22,1.83-0.1,9.13-0.1,10.19
			c0,0-0.13,1.71,1.34,2.51h-8.09c0,0,1.35-0.6,1.36-2.46c0,0-0.12-18.25-0.12-19.13C97.57,13.11,97.72,10.22,96.33,10.74"/>
		<path class="st0" d="M18.34,33.24c0,0-4.42,0.73-4.6-1.71c-0.17-2.44-0.04-12.75-0.04-12.75l-0.09-8.21
			c-0.05-1.8,2.35-1.72,2.35-1.72c4.98,0,4.5,5.02,4.5,5.02c0,2.74-4.18,6.11-4.18,6.11l-0.03,0.01l0.03,0.01
			c0.39,0.09,5.72,1.33,6.11,8.03C22.39,28.02,22.99,32.68,18.34,33.24 M28.16,26.89c-0.84-6.38-8.31-7.31-8.31-7.31
			c5.3-3.12,5.76-5.92,5.76-6.6c0.13-4.74-4.28-5.3-4.28-5.3C20.17,7.32,6.36,7.55,6.36,7.55c1.36,0.75,1.33,2.17,1.33,2.17
			c0.08,0.58,0.25,22.43,0.25,22.43C7.68,34.29,6.4,34.7,6.4,34.7c0.38,0,14.95-0.08,14.95-0.08C29.2,34.24,28.16,26.89,28.16,26.89
			"/>
		<path class="st0" d="M47.57,19.7l7-3.89l0.08,4.12c0,0,0.74-3.87,4.67-4.59c0,0,4.99-1.02,4.87,3.87c0,0.12-5.96,3.38-5.96,3.38
			s0.36-0.37,0.68-1.2c0.19-0.48,0.23-1.03,0.11-1.43c-0.55-1.8-2.52-0.84-3.23-0.07c0,0-1.05,0.69-1.05,3.47c0,0,0.04,8.65,0,9.07
			c0,0,0.03,1.93,1.23,2.28c0,0-8.35,0.03-8.39-0.05c0,0,1.14-0.57,1.23-2.14c0.09-1.57,0.17-10.43,0.17-10.85
			C48.98,21.65,49.07,19.32,47.57,19.7"/>
		<path class="st0" d="M31.33,23.23l0.14-5.68c0,0,3.38-2.5,7.21-2.54c0,0,6.56-0.28,7.35,6.01c0,0-0.19,9.15-0.28,10.53
			c0,0-0.14,2.59,1.71,3.09h-7.35c0,0,0.46-10.07,0.28-11c0,0-5.1,2.87-5.59,5.41c-0.14,0.73-0.41,3.42,2.22,3.42
			c0.64,0,0.98-0.26,1.62-0.77c0,0,0,2.33,0,2.62c0,0-1.25,0.88-4.53,0.56c0,0-5.22-0.46-5.22-5.41c0-0.69,0.37-3.24,4.3-4.94
			c3.93-1.71,5.08-1.85,6.37-3.05c1.3-1.2,1.46-4.12-1.38-4.34C36.41,16.99,33.78,18.66,31.33,23.23"/>
		<path class="st0" d="M91.77,23.14l3.67-4.25c0,0-2.68-4.19-9.29-3.54c-7.54,0.75-9.29,7-9.23,9.23c0.04,1.51-0.33,9.03,8.38,10.87
			c0,0,4.58,1.11,9.88-2.1l1.24-5.17c0,0-3.27,5.04-7.2,5.1c0,0-5.4,0.74-6.55-7.66c-1.05-7.66,3.66-8.57,4.84-8.57
			C88.17,17.05,92.03,17.38,91.77,23.14"/>
		<path class="st0" d="M134.66,19.53c-1.46-1.79-4.03-3-6.38-3c-4.74,0-8.65,4.09-8.65,8.75c0,2.22,0.96,4.31,2.55,5.88
			c1.59,1.52,3.86,2.62,6.1,2.62c2.19,0,4.97-1.19,6.38-2.9v1.67c-1.79,1.49-3.99,2.37-6.33,2.37c-5.3,0-9.91-4.41-9.91-9.74
			c0-5.4,4.54-9.79,9.94-9.79c2.3,0,4.62,0.91,6.31,2.47V19.53z"/>
		<path class="st0" d="M146.16,15.39c-5.37,0-9.86,4.41-9.86,9.76c0,5.35,4.51,9.76,9.86,9.76c5.35,0,9.86-4.41,9.86-9.76
			C156.03,19.81,151.51,15.39,146.16,15.39 M146.16,16.53c4.72,0,8.65,3.94,8.65,8.63c0,4.67-3.94,8.63-8.65,8.63
			c-4.74,0-8.65-3.93-8.65-8.63C137.51,20.46,141.42,16.53,146.16,16.53"/>
		<polygon class="st0" points="160.69,33.53 165.54,33.53 165.54,34.66 159.48,34.66 159.48,15.64 160.69,15.64 		"/>
		<polygon class="st0" points="169.95,33.53 174.8,33.53 174.8,34.66 168.74,34.66 168.74,15.64 169.95,15.64 		"/>
		<polygon class="st0" points="179.21,16.78 179.21,23.69 186.88,23.69 186.88,24.83 179.21,24.83 179.21,33.53 187.08,33.53 
			187.08,34.66 178,34.66 178,15.64 187.08,15.64 187.08,16.78 		"/>
		<path class="st0" d="M208.5,25.51c0.05,2.4-0.3,4.49-1.99,6.33c-1.82,1.97-4.54,3.08-7.21,3.08c-5.27,0-9.76-4.44-9.76-9.69
			c0-5.45,4.47-9.84,9.91-9.84c3.46,0,6.26,1.72,8.25,4.44l-0.99,0.78c-1.69-2.52-4.26-4.09-7.34-4.09c-4.64,0-8.63,4.06-8.63,8.63
			c0,4.69,3.88,8.63,8.63,8.63c2.04,0,4.04-0.83,5.6-2.09c1.64-1.39,2.25-2.98,2.32-5.04h-6.81v-1.14H208.5z"/>
		<polygon class="st0" points="211.95,15.64 211.95,34.66 221.03,34.66 221.03,33.53 213.16,33.53 213.16,24.83 220.83,24.83 
			220.83,23.69 213.16,23.69 213.16,16.78 221.03,16.78 221.03,15.64 		"/>
	</g>
</g>
</svg>
