<?xml version="1.0" encoding="utf-8"?>
<!-- Generator: Adobe Illustrator 30.2.1, SVG Export Plug-In . SVG Version: 9.03 Build 0)  -->
<svg version="1.1" id="Layer_1" xmlns="http://www.w3.org/2000/svg" xmlns:xlink="http://www.w3.org/1999/xlink" x="0px" y="0px"
	 viewBox="0 0 126 56" style="enable-background:new 0 0 126 56;" xml:space="preserve">
<style type="text/css">
	.st0{fill:#FFFFFF;}
</style>
<g>
	<polygon class="st0" points="25.62,28.52 25.62,40.38 15.05,28.52 9.59,28.52 9.59,28.52 9.59,50.64 15.67,50.64 15.67,38.78 
		26.1,50.64 31.71,50.64 31.71,28.52 	"/>
	<path class="st0" d="M53.82,19.24c0-0.8,0-1.61,0-2.41c0-0.74,0-1.47,0-2.18h0l0,0c0-4.22,0-7.74,0-7.74l-5.95,0l-0.13,0v7.74v4.59
		c0,0.54-0.08,1.03-0.25,1.48c-0.22,0.57-0.57,1.06-1.08,1.49c-0.93,0.8-2.29,1.28-3.64,1.28l0,0v0c0,0,0,0,0,0c0,0,0,0,0,0v0l0,0
		c-1.34,0-2.7-0.48-3.64-1.28c-0.5-0.43-0.86-0.92-1.08-1.49c-0.17-0.45-0.25-0.94-0.25-1.48v-4.59V6.91l-0.13,0l-5.95,0
		c0,0,0,3.52,0,7.74l0,0h0c0,0.71,0,1.44,0,2.18c0,0.8,0,1.61,0,2.41v1.48h0c0,4.89,5.28,8.77,10.77,8.85c0.06,0,0.11,0,0.17,0
		c0.02,0,0.04,0,0.07,0c0.01,0,0.03,0,0.04,0v0c0,0,0,0,0,0c0,0,0,0,0,0c0,0,0.01,0,0.01,0l0,0c0.01,0,0.02,0,0.04,0
		c0.02,0,0.04,0,0.07,0c0.06,0,0.11,0,0.17,0c5.49-0.08,10.77-3.85,10.77-8.85h0V19.24z"/>
	<path class="st0" d="M25.08,20.71c-0.98,1.64-2.73,2.74-4.74,2.76c-0.03,0-0.05,0-0.08,0c-3.12,0-5.65-2.6-5.65-5.8
		c0-3.2,2.53-5.8,5.65-5.8c0.03,0,0.05,0,0.08,0c2,0.03,3.76,1.13,4.74,2.76h6.63c0-4.99-5.25-8.76-10.73-8.85
		c-0.01,0-0.03,0-0.04,0c-0.06,0-0.11,0-0.17,0c-0.02,0-0.04,0-0.07,0c-0.01,0-0.02,0-0.04,0l0,0c0,0-0.01,0-0.01,0c0,0,0,0,0,0
		c0,0,0,0,0,0v0c-0.01,0-0.03,0-0.04,0c-0.02,0-0.04,0-0.07,0c-0.06,0-0.11,0-0.17,0h-0.45c-4.35,0-8.16,2.34-10.23,5.83
		c-1.05,1.77-1.66,3.84-1.66,6.06h0c0,0,0,0,0,0v0h0c0,2.21,0.61,4.28,1.66,6.06c2.07,3.49,5.88,5.83,10.23,5.83h0.45
		c0.06,0,0.11,0,0.17,0c0.02,0,0.04,0,0.07,0c0.01,0,0.03,0,0.04,0v0c0,0,0,0,0,0c0,0,0,0,0,0c0,0,0.01,0,0.01,0l0,0
		c0.01,0,0.02,0,0.04,0c0.02,0,0.04,0,0.07,0c0.06,0,0.11,0,0.17,0c0.01,0,0.03,0,0.04,0c5.48-0.1,10.73-3.86,10.73-8.85H25.08z"/>
	<polygon class="st0" points="47.74,28.52 42.76,38.67 37.79,28.52 31.71,28.52 39.72,44.87 39.72,50.64 45.8,50.64 45.8,44.87 
		53.82,28.52 	"/>
	<g>
		<path class="st0" d="M59.42,16.72V8.36h-2.03V6.89h5.67v1.48h-2.03v8.36H59.42z"/>
		<path class="st0" d="M68.55,16.72v-4.36h-2.79v4.36h-1.63V6.89h1.63v4.01h2.79V6.89h1.6v9.84H68.55z"/>
		<path class="st0" d="M71.38,16.72V6.89h5.03v1.48h-3.4v2.56h2.53v1.42h-2.53v2.89h3.58v1.48H71.38z"/>
		<path class="st0" d="M86.07,13.52c-0.16,1.11-0.47,1.94-0.95,2.49c-0.47,0.56-1.16,0.84-2.07,0.84c-0.59,0-1.09-0.12-1.49-0.35
			c-0.4-0.23-0.72-0.57-0.96-1.01c-0.24-0.44-0.42-0.97-0.52-1.6c-0.11-0.63-0.16-1.34-0.16-2.13c0-0.71,0.05-1.37,0.16-1.98
			c0.11-0.61,0.29-1.13,0.53-1.58c0.25-0.45,0.57-0.8,0.97-1.05c0.4-0.26,0.89-0.38,1.48-0.38c0.47,0,0.88,0.07,1.22,0.21
			c0.34,0.14,0.62,0.35,0.84,0.62c0.22,0.27,0.4,0.61,0.53,1c0.13,0.39,0.23,0.84,0.29,1.34l-1.51,0.14
			c-0.2-1.24-0.65-1.86-1.36-1.86c-0.5,0-0.88,0.28-1.14,0.84c-0.26,0.56-0.38,1.46-0.38,2.71c0,0.68,0.03,1.26,0.09,1.72
			c0.06,0.46,0.15,0.84,0.27,1.12c0.12,0.29,0.28,0.49,0.47,0.62c0.19,0.12,0.41,0.18,0.68,0.18c0.76,0,1.24-0.68,1.45-2.04
			L86.07,13.52z"/>
		<path class="st0" d="M87.09,16.72V6.89h1.63v9.84H87.09z"/>
		<path class="st0" d="M91.8,16.72V8.36h-2.03V6.89h5.67v1.48h-2.03v8.36H91.8z"/>
		<path class="st0" d="M98.44,16.72v-3.97l-2.42-5.86h1.73l1.49,4h0.03l1.58-4h1.7l-2.47,5.86v3.97H98.44z"/>
		<path class="st0" d="M61.83,18.2h1.6v6.7c0,1.07-0.24,1.88-0.73,2.42c-0.48,0.55-1.26,0.82-2.33,0.82c-1.06,0-1.82-0.27-2.27-0.82
			c-0.46-0.55-0.69-1.36-0.69-2.42v-6.7h1.63v6.92c0,0.58,0.11,0.99,0.33,1.25c0.22,0.26,0.56,0.38,1.03,0.38s0.82-0.13,1.06-0.38
			c0.24-0.26,0.36-0.67,0.36-1.25V18.2z"/>
		<path class="st0" d="M69.21,28.04l-3.14-6.79h-0.03v6.79H64.6V18.2h1.88l2.7,5.97h0.03V18.2h1.48v9.84H69.21z"/>
		<path class="st0" d="M71.86,28.04V18.2h1.63v9.84H71.86z"/>
		<path class="st0" d="M76.66,28.04l-2.37-9.84h1.73l1.52,7.21h0.03l1.59-7.21h1.73l-2.4,9.84H76.66z"/>
		<path class="st0" d="M81.69,28.04V18.2h5.03v1.48h-3.4v2.56h2.53v1.42h-2.53v2.89h3.58v1.48H81.69z"/>
		<path class="st0" d="M92.14,28.04l-1.41-4.05h-1.25v4.05h-1.63V18.2h2.6c1.05,0,1.83,0.21,2.35,0.64
			c0.52,0.43,0.77,1.12,0.77,2.08c0,0.63-0.12,1.14-0.37,1.53c-0.25,0.39-0.58,0.68-1.01,0.87l1.71,4.71H92.14z M90.42,22.6
			c0.18,0,0.37-0.02,0.55-0.06c0.18-0.04,0.34-0.12,0.49-0.23c0.14-0.11,0.26-0.26,0.34-0.46c0.09-0.2,0.13-0.45,0.13-0.77
			c0-0.35-0.05-0.62-0.14-0.82c-0.09-0.2-0.21-0.34-0.35-0.44c-0.14-0.1-0.3-0.16-0.49-0.18c-0.18-0.02-0.37-0.03-0.55-0.03h-0.92
			v2.99H90.42z"/>
		<path class="st0" d="M98.68,20.8c-0.1-0.42-0.25-0.75-0.45-0.99c-0.2-0.24-0.49-0.36-0.88-0.36c-0.35,0-0.62,0.09-0.82,0.27
			c-0.2,0.18-0.29,0.43-0.29,0.75c0,0.35,0.1,0.63,0.3,0.86c0.2,0.23,0.45,0.44,0.75,0.64c0.3,0.2,0.62,0.39,0.97,0.58
			c0.35,0.19,0.67,0.41,0.97,0.67c0.3,0.26,0.55,0.57,0.75,0.93c0.2,0.36,0.3,0.81,0.3,1.35c0,0.86-0.26,1.52-0.77,1.98
			c-0.52,0.46-1.22,0.69-2.1,0.69c-0.88,0-1.54-0.21-1.99-0.64c-0.45-0.43-0.75-1.09-0.9-1.97l1.51-0.26
			c0.1,0.5,0.26,0.88,0.47,1.13c0.21,0.25,0.53,0.38,0.97,0.38c0.37,0,0.68-0.1,0.9-0.3c0.23-0.2,0.34-0.49,0.34-0.88
			c0-0.36-0.1-0.66-0.29-0.9c-0.2-0.25-0.44-0.47-0.74-0.67c-0.3-0.2-0.62-0.39-0.96-0.58c-0.34-0.19-0.66-0.41-0.96-0.66
			c-0.3-0.26-0.54-0.56-0.74-0.91c-0.2-0.35-0.29-0.79-0.29-1.32c0-0.77,0.23-1.37,0.7-1.81c0.47-0.44,1.11-0.66,1.93-0.66
			c0.43,0,0.8,0.06,1.12,0.17c0.31,0.11,0.58,0.28,0.8,0.49c0.22,0.21,0.39,0.47,0.53,0.77c0.13,0.3,0.23,0.64,0.31,1.01L98.68,20.8
			z"/>
		<path class="st0" d="M101.07,28.04V18.2h1.63v9.84H101.07z"/>
		<path class="st0" d="M105.81,28.04v-8.36h-2.03V18.2h5.67v1.48h-2.03v8.36H105.81z"/>
		<path class="st0" d="M112.46,28.04v-3.97l-2.42-5.86h1.73l1.49,4h0.03l1.58-4h1.7l-2.47,5.86v3.97H112.46z"/>
		<path class="st0" d="M60.65,39.48c-1.13,0-1.96-0.44-2.47-1.31c-0.52-0.87-0.77-2.12-0.77-3.73c0-0.81,0.06-1.53,0.18-2.16
			c0.12-0.63,0.32-1.16,0.58-1.58c0.26-0.42,0.6-0.75,1.01-0.97c0.41-0.22,0.9-0.33,1.48-0.33c1.15,0,1.98,0.43,2.49,1.3
			c0.51,0.87,0.77,2.11,0.77,3.74c0,1.62-0.26,2.86-0.78,3.73C62.61,39.04,61.78,39.48,60.65,39.48z M60.65,38.08
			c0.26,0,0.48-0.07,0.68-0.2c0.2-0.13,0.37-0.34,0.51-0.63c0.14-0.29,0.24-0.66,0.31-1.12c0.07-0.46,0.1-1.02,0.1-1.69
			c0-1.28-0.13-2.2-0.4-2.77c-0.27-0.57-0.67-0.86-1.2-0.86c-0.53,0-0.93,0.29-1.19,0.86c-0.26,0.57-0.4,1.5-0.4,2.77
			c0,0.67,0.03,1.23,0.1,1.69c0.07,0.46,0.17,0.84,0.31,1.12c0.14,0.29,0.3,0.5,0.5,0.63C60.17,38.01,60.4,38.08,60.65,38.08z"/>
		<path class="st0" d="M64.95,39.35v-9.84h5.11V31h-3.48v2.56h2.59v1.42h-2.59v4.37H64.95z"/>
		<path class="st0" d="M62.05,50.67l-3.14-6.79h-0.03v6.79h-1.45v-9.84h1.88l2.7,5.97h0.03v-5.97h1.48v9.84H62.05z"/>
		<path class="st0" d="M64.62,50.67v-9.84h5.03v1.48h-3.4v2.56h2.53v1.42h-2.53v2.89h3.58v1.48H64.62z"/>
		<path class="st0" d="M76.31,50.67l-1.12-6.7h-0.03l-1.07,6.7h-1.64l-1.97-9.84h1.63l1.15,6.74h0.03l1.12-6.74h1.6l1.11,6.73h0.03
			l1.15-6.73h1.6l-1.96,9.84H76.31z"/>
		<path class="st0" d="M84.92,50.67V46.7l-2.42-5.86h1.73l1.49,4h0.03l1.58-4h1.7l-2.47,5.86v3.97H84.92z"/>
		<path class="st0" d="M92.18,50.79c-1.13,0-1.96-0.44-2.47-1.31c-0.52-0.87-0.77-2.12-0.77-3.73c0-0.81,0.06-1.53,0.18-2.16
			c0.12-0.63,0.32-1.16,0.58-1.58c0.26-0.42,0.6-0.75,1.01-0.97c0.41-0.22,0.9-0.33,1.48-0.33c1.15,0,1.98,0.43,2.49,1.3
			c0.51,0.87,0.77,2.11,0.77,3.74c0,1.62-0.26,2.86-0.78,3.73C94.14,50.36,93.32,50.79,92.18,50.79z M92.18,49.4
			c0.26,0,0.48-0.07,0.68-0.2c0.2-0.13,0.37-0.34,0.51-0.63c0.14-0.29,0.24-0.66,0.31-1.12c0.07-0.46,0.1-1.02,0.1-1.69
			c0-1.28-0.13-2.2-0.4-2.77c-0.27-0.57-0.67-0.86-1.2-0.86c-0.53,0-0.93,0.29-1.19,0.86c-0.26,0.57-0.4,1.5-0.4,2.77
			c0,0.67,0.03,1.23,0.1,1.69c0.07,0.46,0.17,0.84,0.31,1.12c0.14,0.29,0.3,0.5,0.5,0.63C91.7,49.33,91.93,49.4,92.18,49.4z"/>
		<path class="st0" d="M100.73,50.67l-1.41-4.05h-1.25v4.05h-1.63v-9.84h2.6c1.05,0,1.83,0.21,2.35,0.64
			c0.52,0.43,0.77,1.12,0.77,2.08c0,0.63-0.12,1.14-0.37,1.53c-0.25,0.39-0.58,0.68-1.01,0.87l1.71,4.71H100.73z M99.01,45.23
			c0.18,0,0.37-0.02,0.55-0.06c0.18-0.04,0.34-0.12,0.49-0.23c0.14-0.11,0.26-0.26,0.34-0.46c0.09-0.2,0.13-0.45,0.13-0.77
			c0-0.35-0.05-0.62-0.14-0.82c-0.09-0.2-0.21-0.34-0.35-0.44c-0.14-0.1-0.3-0.16-0.49-0.18c-0.18-0.02-0.37-0.03-0.55-0.03h-0.92
			v2.99H99.01z"/>
		<path class="st0" d="M107.81,50.67l-1.86-4.63l-1,1.53v3.1h-1.6v-9.84h1.6v4.27h0.03l2.58-4.27h1.71l-2.21,3.59l2.48,6.25H107.81z
			"/>
	</g>
</g>
</svg>
